<!DOCTYPE svg PUBLIC "-//W3C//DTD SVG 1.1//EN" "http://www.w3.org/Graphics/SVG/1.1/DTD/svg11.dtd">
<svg version="1.1" id="IconsRepoEditor" xmlns="http://www.w3.org/2000/svg" xmlns:xlink="http://www.w3.org/1999/xlink" x="0px" y="0px" viewBox="0 0 330 330" style="enable-background:new 0 0 330 330;" xml:space="preserve" width="100px" height="100px" fill="#94d82d" stroke="#94d82d" stroke-width="0">
<g id="IconsRepo_bgCarrier"/> <g id="IconsRepoEditor"> <path id="IconsRepoEditor" d="M165,82.5c-45.49,0-82.5,37.009-82.5,82.5s37.01,82.5,82.5,82.5s82.5-37.009,82.5-82.5 S210.49,82.5,165,82.5z"/> <path id="IconsRepoEditor" d="M165,0C74.019,0,0,74.019,0,165s74.019,165,165,165s165-74.019,165-165S255.981,0,165,0z M165,300 c-74.439,0-135-60.561-135-135S90.561,30,165,30s135,60.561,135,135S239.439,300,165,300z"/> </g>
</svg>